<?xml version="1.0" ?><svg enable-background="new 0 0 52 52" id="Layer_1" version="1.1" viewBox="0 0 52 52" xml:space="preserve" xmlns="http://www.w3.org/2000/svg" xmlns:xlink="http://www.w3.org/1999/xlink"><path d="M38.9799805,2H2v48h48V13.0200195L38.9799805,2z M25.0005493,6.0021362h3v2h-3V6.0021362z M25.0005493,10.0021362h3v2h-3  V10.0021362z M25.0005493,14.0021362h3v2h-3V14.0021362z M19.0005493,6.0021362h3v2h-3V6.0021362z M19.0005493,10.0021362h3v2h-3  V10.0021362z M19.0005493,14.0021362h3v2h-3V14.0021362z M10.0005493,46.0021362h-3v-2h3V46.0021362z M10.0005493,42.0021362h-3v-2  h3V42.0021362z M10.0005493,38.0021362h-3v-2h3V38.0021362z M10.0005493,34.0021362h-3v-2h3V34.0021362z M10.0005493,30.0021362h-3  v-2h3V30.0021362z M10.0005493,25.0021362h-3v-2h3V25.0021362z M10.0005493,21.0021362h-3v-2h3V21.0021362z M10.0005493,16.0021362  h-3v-2h3V16.0021362z M10.0005493,12.0021362h-3v-2h3V12.0021362z M10.0005493,8.0021362h-3v-2h3V8.0021362z M16.0005493,46.0021362  h-3v-2h3V46.0021362z M16.0005493,42.0021362h-3v-2h3V42.0021362z M16.0005493,38.0021362h-3v-2h3V38.0021362z   M16.0005493,34.0021362h-3v-2h3V34.0021362z M16.0005493,30.0021362h-3v-2h3V30.0021362z M16.0005493,25.0021362h-3v-2h3  V25.0021362z M16.0005493,21.0021362h-3v-2h3V21.0021362z M16.0005493,16.0021362h-3v-2h3V16.0021362z M16.0005493,12.0021362h-3v-2  h3V12.0021362z M16.0005493,8.0021362h-3v-2h3V8.0021362z M19,19h14v14H19V19z M22.0005493,46.0021362h-3v-2h3V46.0021362z   M22.0005493,42.0021362h-3v-2h3V42.0021362z M22.0005493,38.0021362h-3v-2h3V38.0021362z M28.0005493,46.0021362h-3v-2h3  V46.0021362z M28.0005493,42.0021362h-3v-2h3V42.0021362z M28.0005493,38.0021362h-3v-2h3V38.0021362z M34.0005493,46.0021362h-3v-2  h3V46.0021362z M34.0005493,42.0021362h-3v-2h3V42.0021362z M34.0005493,38.0021362h-3v-2h3V38.0021362z M34.0005493,16.0021362h-3  v-2h3V16.0021362z M34.0005493,12.0021362h-3v-2h3V12.0021362z M34.0005493,8.0021362h-3v-2h3V8.0021362z M40.0005493,46.0021362h-3  v-2h3V46.0021362z M40.0005493,42.0021362h-3v-2h3V42.0021362z M40.0005493,38.0021362h-3v-2h3V38.0021362z M40.0005493,34.0021362  h-3v-2h3V34.0021362z M40.0005493,30.0021362h-3v-2h3V30.0021362z M40.0005493,25.0021362h-3v-2h3V25.0021362z   M40.0005493,21.0021362h-3v-2h3V21.0021362z M40.0005493,16.0021362h-3v-2h3V16.0021362z M40.0005493,12.0021362h-3v-2h3  V12.0021362z M46.0005493,46.0021362h-3v-2h3V46.0021362z M46.0005493,42.0021362h-3v-2h3V42.0021362z M46.0005493,38.0021362h-3v-2  h3V38.0021362z M46.0005493,34.0021362h-3v-2h3V34.0021362z M46.0005493,30.0021362h-3v-2h3V30.0021362z M46.0005493,25.0021362h-3  v-2h3V25.0021362z M46.0005493,21.0021362h-3v-2h3V21.0021362z M46.0005493,16.0021362h-3v-2h3V16.0021362z"/></svg>