<?xml version="1.0" encoding="UTF-8" standalone="no"?>
<svg height="16px" viewBox="0 0 16 16" width="16px" xmlns="http://www.w3.org/2000/svg" sodipodi:docname="cpu-symbolic.svg" inkscape:version="1.2.1 (9c6d41e410, 2022-07-14)" xmlns:inkscape="http://www.inkscape.org/namespaces/inkscape" xmlns:sodipodi="http://sodipodi.sourceforge.net/DTD/sodipodi-0.dtd" xmlns:svg="http://www.w3.org/2000/svg">
    <sodipodi:namedview pagecolor="#ffffff" bordercolor="#000000" borderopacity="0.25" inkscape:showpageshadow="2" inkscape:pageopacity="0.0" inkscape:pagecheckerboard="0" inkscape:deskcolor="#d1d1d1" showgrid="true" inkscape:zoom="20.274355" inkscape:cx="10.703176" inkscape:cy="9.0755043" inkscape:window-width="1280" inkscape:window-height="731" inkscape:window-x="0" inkscape:window-y="0" inkscape:window-maximized="1" inkscape:current-layer="svg4">
        <inkscape:grid/>
    </sodipodi:namedview>
    <path d="m 5 0 v 2 s -0.7070322 -0.0156246 -1.4492188 0.3554688 c -0.7382794 0.3710922 -1.5507812 1.3125028 -1.5507812 2.6445312 v 1 h -2 v 1 h 2 v 1 h -2 v 1 h 2 v 1 h -2 v 1 h 2 s -0.0156297 0.707033 0.3554688 1.445312 c 0.3710922 0.742188 1.3125028 1.554688 2.6445312 1.554688 h 1 v 2 h 1 v -2 h 1 v 2 h 1 v -2 h 1 v 2 h 1 v -2 s 0.707031 0.01563 1.449219 -0.355469 c 0.738279 -0.371091 1.550781 -1.312502 1.550781 -2.644531 v -1 h 2 v -1 h -2 v -1 h 2 v -1 h -2 v -1 h 2 v -1 h -2 c 0 -1.3320284 -0.812502 -2.273439 -1.550781 -2.6445312 c -0.742188 -0.3710934 -1.449219 -0.3554688 -1.449219 -0.3554688 h -1 v -2 h -1 v 2 h -1 v -2 h -1 v 2 h -1 v -2 z m 0 4 h 6 c 0.554686 0 1 0.4453132 1 1 v 6 c 0 0.554686 -0.445314 1 -1 1 h -6 c -0.5546868 0 -1 -0.445314 -1 -1 v -6 c 0 -0.5546868 0.4453132 -1 1 -1 z m 0 1 v 6 h 6 v -6 z" fill="#2e3436"/>
</svg>
