<?xml version="1.0" encoding="UTF-8" standalone="no"?>
<svg
   xmlns:dc="http://purl.org/dc/elements/1.1/"
   xmlns:cc="http://creativecommons.org/ns#"
   xmlns:rdf="http://www.w3.org/1999/02/22-rdf-syntax-ns#"
   xmlns:svg="http://www.w3.org/2000/svg"
   xmlns="http://www.w3.org/2000/svg"
   xmlns:sodipodi="http://sodipodi.sourceforge.net/DTD/sodipodi-0.dtd"
   xmlns:inkscape="http://www.inkscape.org/namespaces/inkscape"
   enable-background="new 0 0 800 800"
   height="800px"
   id="GUIDE"
   version="1.1"
   viewBox="0 0 800 800"
   width="800px"
   xml:space="preserve"
   sodipodi:docname="cpu.svg"
   inkscape:version="0.92.3 (3ce5693, 2018-03-11)"><metadata
     id="metadata3771"><rdf:RDF><cc:Work
         rdf:about=""><dc:format>image/svg+xml</dc:format><dc:type
           rdf:resource="http://purl.org/dc/dcmitype/StillImage" /></cc:Work></rdf:RDF></metadata><defs
     id="defs3769" /><sodipodi:namedview
     pagecolor="#ffffff"
     bordercolor="#666666"
     borderopacity="1"
     objecttolerance="10"
     gridtolerance="10"
     guidetolerance="10"
     inkscape:pageopacity="0"
     inkscape:pageshadow="2"
     inkscape:window-width="3200"
     inkscape:window-height="1689"
     id="namedview3767"
     showgrid="false"
     inkscape:zoom="1.7925"
     inkscape:cx="270.01395"
     inkscape:cy="400"
     inkscape:window-x="0"
     inkscape:window-y="55"
     inkscape:window-maximized="1"
     inkscape:current-layer="GUIDE" /><path
     d="M550.756,234.244H249.245c-8.285,0-15,6.717-15,15v301.512c0,8.284,6.715,15,15,15h301.511  c8.284,0,15-6.716,15-15V249.244C565.756,240.961,559.04,234.244,550.756,234.244z M535.756,535.756H264.245V264.244h271.511  V535.756z"
     fill="#08213D"
     id="path3762"
     style="fill:#ffffff;fill-opacity:1" /><path
     d="M756.56,364.748c8.284,0,15-6.716,15-15s-6.716-15-15-15H637.521v-70.504H756.56c8.284,0,15-6.716,15-15  c0-8.284-6.716-15-15-15H637.521V177.48c0-8.284-6.717-15-15-15h-56.765V43.44c0-8.284-6.716-15-15-15s-15,6.716-15,15v119.04  h-70.504V43.44c0-8.284-6.716-15-15-15s-15,6.716-15,15v119.04h-70.504V43.44c0-8.284-6.716-15-15-15s-15,6.716-15,15v119.04  h-70.504V43.44c0-8.284-6.716-15-15-15c-8.284,0-15,6.716-15,15v119.04H177.48c-8.284,0-15,6.716-15,15v56.764H43.44  c-8.284,0-15,6.717-15,15c0,8.285,6.716,15,15,15h119.04v70.504H43.44c-8.284,0-15,6.717-15,15c0,8.285,6.716,15,15,15h119.04  v70.504H43.44c-8.284,0-15,6.716-15,15s6.716,15,15,15h119.04v70.505H43.44c-8.284,0-15,6.716-15,15s6.716,15,15,15h119.04v56.763  c0,8.284,6.716,15,15,15h56.765v119.04c0,8.284,6.715,15,15,15c8.283,0,15-6.716,15-15V637.52h70.504v119.04c0,8.284,6.715,15,15,15  c8.283,0,15-6.716,15-15V637.52h70.503v119.04c0,8.284,6.716,15,15,15s15-6.716,15-15V637.52h70.504v119.04c0,8.284,6.716,15,15,15  s15-6.716,15-15V637.52h56.764c8.284,0,15-6.716,15-15v-56.764h119.04c8.284,0,15-6.716,15-15s-6.716-15-15-15H637.521v-70.504  H756.56c8.284,0,15-6.716,15-15s-6.716-15-15-15H637.521v-70.504H756.56L756.56,364.748z M607.521,607.52H192.48V192.48h415.041  V607.52z"
     fill="#08213D"
     id="path3764"
     style="fill:#ffffff;fill-opacity:1" /></svg>