<?xml version="1.0" ?><svg enable-background="new 0 0 52 52" id="Layer_1" version="1.1" viewBox="0 0 52 52" xml:space="preserve" xmlns="http://www.w3.org/2000/svg" xmlns:xlink="http://www.w3.org/1999/xlink"><g><g><g><path d="M42,42H10V10h32V42z M12,40h28V12H12V40z"/></g></g><g><g><path d="M33,36.5H19c-1.6542969,0-3-1.3457031-3-3v-14c0-1.6542969,1.3457031-3,3-3h14c1.6542969,0,3,1.3457031,3,3v14     C36,35.1542969,34.6542969,36.5,33,36.5z M19,18.5c-0.5517578,0-1,0.4487305-1,1v14c0,0.5512695,0.4482422,1,1,1h14     c0.5517578,0,1-0.4487305,1-1v-14c0-0.5512695-0.4482422-1-1-1H19z"/></g></g><g><g><g><g><rect height="2" width="7" x="42" y="12.5"/></g></g><g><g><rect height="2" width="7" x="42" y="17.5"/></g></g><g><g><rect height="2" width="7" x="42" y="22.5"/></g></g><g><g><rect height="2" width="7" x="42" y="27.5"/></g></g><g><g><rect height="2" width="7" x="42" y="32.5"/></g></g><g><g><rect height="2" width="7" x="42" y="37.5"/></g></g></g><g><g><g><rect height="2" width="7" x="3" y="12.5"/></g></g><g><g><rect height="2" width="7" x="3" y="17.5"/></g></g><g><g><rect height="2" width="7" x="3" y="22.5"/></g></g><g><g><rect height="2" width="7" x="3" y="27.5"/></g></g><g><g><rect height="2" width="7" x="3" y="32.5"/></g></g><g><g><rect height="2" width="7" x="3" y="37.5"/></g></g></g></g><g><g><g><g><rect height="7" width="2" x="37.5" y="3"/></g></g><g><g><rect height="7" width="2" x="32.5" y="3"/></g></g><g><g><rect height="7" width="2" x="27.5" y="3"/></g></g><g><g><rect height="7" width="2" x="22.5" y="3"/></g></g><g><g><rect height="7" width="2" x="17.5" y="3"/></g></g><g><g><rect height="7" width="2" x="12.5" y="3"/></g></g></g><g><g><g><rect height="7" width="2" x="37.5" y="42"/></g></g><g><g><rect height="7" width="2" x="32.5" y="42"/></g></g><g><g><rect height="7" width="2" x="27.5" y="42"/></g></g><g><g><rect height="7" width="2" x="22.5" y="42"/></g></g><g><g><rect height="7" width="2" x="17.5" y="42"/></g></g><g><g><rect height="7" width="2" x="12.5" y="42"/></g></g></g></g><g><g><rect height="2.0229192" transform="matrix(0.7069861 -0.7072275 0.7072275 0.7069861 -6.0951171 14.718812)" width="1.9997864" x="13.7154388" y="13.7036285"/></g></g><g><g><rect height="2.0218835" transform="matrix(0.7071068 -0.7071068 0.7071068 0.7071068 -15.4440174 37.2851563)" width="1.9997864" x="36.2852631" y="36.2742157"/></g></g></g></svg>