<?xml version="1.0" ?><!DOCTYPE svg  PUBLIC '-//W3C//DTD SVG 1.1//EN'  'http://www.w3.org/Graphics/SVG/1.1/DTD/svg11.dtd'><svg enable-background="new 0 0 800 800" height="800px" id="GUIDE" version="1.1" viewBox="0 0 800 800" width="800px" xml:space="preserve" xmlns="http://www.w3.org/2000/svg" xmlns:cc="http://creativecommons.org/ns#" xmlns:dc="http://purl.org/dc/elements/1.1/" xmlns:inkscape="http://www.inkscape.org/namespaces/inkscape" xmlns:rdf="http://www.w3.org/1999/02/22-rdf-syntax-ns#" xmlns:sodipodi="http://sodipodi.sourceforge.net/DTD/sodipodi-0.dtd" xmlns:svg="http://www.w3.org/2000/svg" xmlns:xlink="http://www.w3.org/1999/xlink"><path d="M603.457,304.427c-2.194,0-4.402,0.045-6.615,0.131c-17.621-40.95-46.086-76.023-82.839-101.924  c-40.77-28.728-88.769-43.912-138.81-43.912c-61.014,0-119.244,22.828-163.967,64.279c-41.611,38.568-68.075,89.96-75.294,145.752  c-28.262,6.304-53.97,21.442-73.342,43.395c-22.23,25.189-34.474,57.585-34.474,91.216c0,76.047,61.869,137.916,137.916,137.916  h437.424c92.87,0,168.426-75.556,168.426-168.427C771.883,379.983,696.327,304.427,603.457,304.427z M603.457,611.278H166.033  c-59.505,0-107.916-48.41-107.916-107.916c0-53.884,40.209-99.867,93.529-106.961c7.002-0.933,12.404-6.621,12.973-13.662  c8.79-108.795,101.285-194.018,210.574-194.018c87.489,0,166.975,55.002,197.79,136.867c2.405,6.396,8.833,10.356,15.626,9.632  c4.944-0.525,9.94-0.794,14.849-0.794c76.328,0,138.426,62.099,138.426,138.426C741.883,549.18,679.785,611.278,603.457,611.278z" fill="#FFFFFF"/><path d="M322.095,466.554l40.107,69.47c2.68,4.642,7.632,7.5,12.99,7.5c5.359,0,10.312-2.859,12.99-7.5l40.109-69.47  c4.142-7.174,1.684-16.348-5.49-20.489c-2.363-1.364-4.941-2.013-7.486-2.013c-5.184,0-10.227,2.689-13.004,7.502l-12.119,20.988  V305.715c0-8.284-6.715-15-15-15c-8.283,0-15,6.716-15,15v166.827l-12.117-20.988c-4.143-7.175-13.315-9.631-20.49-5.489  S317.952,459.38,322.095,466.554z" fill="#FFFFFF"/></svg>
