<?xml version="1.0" encoding="UTF-8" standalone="no"?>
<!-- Created with Inkscape (http://www.inkscape.org/) -->

<svg
   xmlns:dc="http://purl.org/dc/elements/1.1/"
   xmlns:cc="http://creativecommons.org/ns#"
   xmlns:rdf="http://www.w3.org/1999/02/22-rdf-syntax-ns#"
   xmlns:svg="http://www.w3.org/2000/svg"
   xmlns="http://www.w3.org/2000/svg"
   xmlns:sodipodi="http://sodipodi.sourceforge.net/DTD/sodipodi-0.dtd"
   xmlns:inkscape="http://www.inkscape.org/namespaces/inkscape"
   id="svg7384"
   version="1.1"
   inkscape:version="0.48.3.1 r9886"
   height="16"
   sodipodi:docname="temperature.svg"
   width="16">
  <metadata
     id="metadata90">
    <rdf:RDF>
      <cc:Work
         rdf:about="">
        <dc:format>image/svg+xml</dc:format>
        <dc:type
           rdf:resource="http://purl.org/dc/dcmitype/StillImage" />
        <dc:title>Gnome Symbolic Icon Theme</dc:title>
      </cc:Work>
    </rdf:RDF>
  </metadata>
  <sodipodi:namedview
     inkscape:object-paths="true"
     inkscape:cy="9.324553"
     inkscape:current-layer="svg7384"
     inkscape:window-width="1680"
     pagecolor="#555753"
     showborder="false"
     showguides="true"
     inkscape:snap-nodes="false"
     objecttolerance="10"
     showgrid="true"
     inkscape:object-nodes="true"
     inkscape:pageshadow="2"
     inkscape:guide-bbox="true"
     inkscape:window-x="0"
     inkscape:snap-bbox="true"
     bordercolor="#666666"
     id="namedview88"
     inkscape:window-maximized="1"
     inkscape:snap-global="false"
     inkscape:window-y="27"
     gridtolerance="10"
     inkscape:zoom="29.86819"
     inkscape:window-height="991"
     borderopacity="1"
     guidetolerance="10"
     inkscape:snap-bbox-midpoints="false"
     inkscape:cx="6.3428911"
     inkscape:bbox-paths="false"
     inkscape:snap-grids="true"
     inkscape:pageopacity="1"
     inkscape:snap-to-guides="true">
    <inkscape:grid
       visible="true"
       spacingx="1px"
       type="xygrid"
       spacingy="1px"
       id="grid4866"
       empspacing="2"
       enabled="true"
       snapvisiblegridlinesonly="true" />
  </sodipodi:namedview>
  <title
     id="title9167">Gnome Symbolic Icon Theme</title>
  <defs
     id="defs7386" />
  <path
     style="fill:#bebebe;fill-opacity:1;stroke:none"
     d="M 8.5 0 C 7.6715729 -1.4802974e-16 7 0.67157284 7 1.5 L 7 11.5 C 6.3881928 11.955718 6 12.678476 6 13.5 C 6 14.880712 7.1192882 16 8.5 16 C 9.8807118 16 11 14.880712 11 13.5 C 11 12.678476 10.611807 11.955718 10 11.5 L 10 10 L 9 10 L 9 12.09375 C 9.586412 12.29759 10 12.844162 10 13.5 C 10 14.328427 9.3284271 15 8.5 15 C 7.6715729 15 7 14.328427 7 13.5 C 7 12.844162 7.413588 12.29759 8 12.09375 L 8 1.5 C 8 1.2238576 8.2238576 1 8.5 1 C 8.7761424 1 9 1.2238576 9 1.5 L 9 3 L 10 3 L 10 1.5 C 10 0.67157284 9.3284271 -1.4802974e-16 8.5 0 z M 9 4 L 9 6 L 10 6 L 10 4 L 9 4 z M 9 7 L 9 9 L 10 9 L 10 7 L 9 7 z "
     id="path2996" />
  <g
     transform="translate(-261,-277)"
     inkscape:groupmode="layer"
     id="layer9"
     inkscape:label="status"
     style="display:inline" />
  <g
     transform="translate(-261,-277)"
     inkscape:groupmode="layer"
     id="layer10"
     inkscape:label="devices" />
  <g
     transform="translate(-261,-277)"
     inkscape:groupmode="layer"
     id="layer11"
     inkscape:label="apps" />
  <g
     transform="translate(-261,-277)"
     inkscape:groupmode="layer"
     id="layer12"
     inkscape:label="actions" />
  <g
     transform="translate(-261,-277)"
     inkscape:groupmode="layer"
     id="layer13"
     inkscape:label="places" />
  <g
     transform="translate(-261,-277)"
     inkscape:groupmode="layer"
     id="layer14"
     inkscape:label="mimetypes" />
  <g
     transform="translate(-261,-277)"
     inkscape:groupmode="layer"
     id="layer15"
     inkscape:label="emblems"
     style="display:inline" />
  <g
     transform="translate(-261,-277)"
     inkscape:groupmode="layer"
     id="g4953"
     inkscape:label="categories"
     style="display:inline" />
  <path
     style="fill:#bebebe;fill-opacity:1;stroke:none"
     d="M 8.5 5.90625 C 8.4323857 5.90625 8.4010746 5.9421069 8.375 6 C 8.3656131 6.0208415 8.34375 6.0381589 8.34375 6.0625 L 8.34375 13.03125 C 8.1487143 13.099435 8 13.281698 8 13.5 C 8 13.776142 8.2238576 14 8.5 14 C 8.7761424 14 9 13.776142 9 13.5 C 9 13.281698 8.8512857 13.099435 8.65625 13.03125 L 8.65625 6.0625 C 8.65625 6.0381589 8.6343869 6.0208415 8.625 6 C 8.5989254 5.9421069 8.5676143 5.90625 8.5 5.90625 z "
     id="rect3817" />
</svg>
