<?xml version="1.0" ?><!DOCTYPE svg  PUBLIC '-//W3C//DTD SVG 1.1//EN'  'http://www.w3.org/Graphics/SVG/1.1/DTD/svg11.dtd'><svg enable-background="new 0 0 800 800" height="800px" id="GUIDE" version="1.1" viewBox="0 0 800 800" width="800px" xml:space="preserve" xmlns="http://www.w3.org/2000/svg" xmlns:cc="http://creativecommons.org/ns#" xmlns:dc="http://purl.org/dc/elements/1.1/" xmlns:inkscape="http://www.inkscape.org/namespaces/inkscape" xmlns:rdf="http://www.w3.org/1999/02/22-rdf-syntax-ns#" xmlns:sodipodi="http://sodipodi.sourceforge.net/DTD/sodipodi-0.dtd" xmlns:svg="http://www.w3.org/2000/svg" xmlns:xlink="http://www.w3.org/1999/xlink"><path d="M756.574,210.308H43.427c-8.286,0-15,6.717-15,15v250v99.39c0,8.28,6.713,14.995,15,14.995h296.074  c3.978,0,7.792-1.576,10.604-4.395c2.813-2.807,4.395-6.621,4.395-10.602l-0.003-23.393h90.998v23.393  c0,8.279,6.718,14.995,15.001,14.995h296.077c8.283,0,14.998-6.716,14.998-14.995v-99.39v-250  C771.572,217.024,764.857,210.308,756.574,210.308z M741.573,559.696h-27.747v-29.391c0-8.28-6.718-15.001-15.001-15.001  s-15.001,6.721-15.001,15.001v29.391h-34.423v-29.391c0-8.28-6.719-15.001-15.004-15.001c-8.283,0-15.001,6.721-15.001,15.001  v29.391H584.97v-29.391c0-8.28-6.718-15.001-15.001-15.001c-8.284,0-15.001,6.721-15.001,15.001v29.391h-34.43v-29.391  c0-8.28-6.715-15.001-14.998-15.001c-8.28,0-14.998,6.721-14.998,15.001v29.391h-15.045v-23.393c0-8.28-6.715-15.001-15.001-15.001  H339.499c-3.98,0-7.795,1.582-10.607,4.399c-2.813,2.806-4.395,6.626-4.395,10.605l0.002,23.388h-15.043v-29.391  c0-8.28-6.716-15.001-15-15.001c-8.286,0-15,6.721-15,15.001v29.391h-34.428v-29.391c0-8.28-6.715-15.001-15.001-15.001  c-8.283,0-15,6.721-15,15.001v29.391H180.6v-29.391c0-8.28-6.716-15.001-15-15.001c-8.284,0-15,6.721-15,15.001v29.391h-34.429  v-29.391c0-8.28-6.716-15.001-14.997-15.001c-8.286,0-15,6.721-15,15.001v29.391H58.427V490.31h683.146V559.696z M741.573,460.308  H58.427V240.309h683.146V460.308z" fill="#08213D"/><path d="M185.85,272.809h-84.675c-8.286,0-15,6.715-15,15.001v124.998c0,8.286,6.713,14.995,15,14.995h84.675  c8.282,0,15-6.709,15-14.995V287.81C200.849,279.523,194.131,272.809,185.85,272.809z M170.85,397.808h-54.678v-95h54.678V397.808z" fill="#08213D"/><path d="M356.841,272.809h-84.677c-8.283,0-15,6.715-15,15.001v124.998c0,8.286,6.716,14.995,15,14.995h84.677  c8.282,0,14.998-6.709,14.998-14.995V287.81C371.839,279.523,365.123,272.809,356.841,272.809z M341.84,397.808h-54.675v-95h54.675  V397.808z" fill="#08213D"/><path d="M527.833,272.809h-84.677c-8.283,0-15.004,6.715-15.004,15.001v124.998c0,8.286,6.721,14.995,15.004,14.995  h84.677c8.283,0,15.001-6.709,15.001-14.995V287.81C542.834,279.523,536.116,272.809,527.833,272.809z M512.829,397.808h-54.672v-95  h54.672V397.808z" fill="#08213D"/><path d="M698.825,272.809h-84.678c-8.286,0-14.998,6.715-14.998,15.001v124.998c0,8.286,6.712,14.995,14.998,14.995  h84.678c8.283,0,15.001-6.709,15.001-14.995V287.81C713.826,279.523,707.108,272.809,698.825,272.809z M683.821,397.808h-54.676v-95  h54.676V397.808z" fill="#08213D"/></svg>