<?xml version="1.0" encoding="UTF-8"?>
<svg height="16px" viewBox="0 0 16 16" width="16px" xmlns="http://www.w3.org/2000/svg">
    <path d="m 12 1 c -0.265625 0 -0.519531 0.105469 -0.707031 0.292969 c -0.390625 0.390625 -0.390625 1.023437 0 1.414062 l 1.292969 1.292969 h -7.585938 c -0.550781 0 -1 0.449219 -1 1 s 0.449219 1 1 1 h 7.585938 l -1.292969 1.292969 c -0.390625 0.390625 -0.390625 1.023437 0 1.414062 s 1.023437 0.390625 1.414062 0 l 3 -3 c 0.390625 -0.390625 0.390625 -1.023437 0 -1.414062 l -3 -3 c -0.1875 -0.1875 -0.441406 -0.292969 -0.707031 -0.292969 z m -8 6 c -0.257812 0 -0.511719 0.097656 -0.707031 0.292969 l -3 3 c -0.3906252 0.390625 -0.3906252 1.023437 0 1.414062 l 3 3 c 0.1875 0.1875 0.441406 0.292969 0.707031 0.292969 s 0.519531 -0.105469 0.707031 -0.292969 c 0.390625 -0.390625 0.390625 -1.023437 0 -1.414062 l -1.292969 -1.292969 h 7.585938 c 0.550781 0 1 -0.449219 1 -1 s -0.449219 -1 -1 -1 h -7.585938 l 1.292969 -1.292969 c 0.390625 -0.390625 0.390625 -1.023437 0 -1.414062 c -0.195312 -0.195313 -0.449219 -0.292969 -0.707031 -0.292969 z m 0 0" fill="#2e3436"/>
</svg>
