<?xml version="1.0" ?><!DOCTYPE svg  PUBLIC '-//W3C//DTD SVG 1.1//EN'  'http://www.w3.org/Graphics/SVG/1.1/DTD/svg11.dtd'><svg enable-background="new 0 0 800 800" height="800px" id="GUIDE" version="1.1" viewBox="0 0 800 800" width="800px" xml:space="preserve" xmlns="http://www.w3.org/2000/svg" xmlns:cc="http://creativecommons.org/ns#" xmlns:dc="http://purl.org/dc/elements/1.1/" xmlns:inkscape="http://www.inkscape.org/namespaces/inkscape" xmlns:rdf="http://www.w3.org/1999/02/22-rdf-syntax-ns#" xmlns:sodipodi="http://sodipodi.sourceforge.net/DTD/sodipodi-0.dtd" xmlns:svg="http://www.w3.org/2000/svg" xmlns:xlink="http://www.w3.org/1999/xlink"><g><path d="M712.002,72.999H87.999c-32.848,0-59.572,26.724-59.572,59.571v401.146c0,32.848,26.724,59.57,59.572,59.57   H293.15l-9.858,59.145h-17.007c-32.848,0-59.572,26.723-59.572,59.572c0,8.283,6.717,15,15,15h356.574c8.284,0,15-6.717,15-15   c0-32.85-26.724-59.572-59.572-59.572h-17.007l-9.857-59.145h205.151c32.848,0,59.571-26.725,59.571-59.57V132.569   C771.573,99.722,744.85,72.999,712.002,72.999z M533.715,682.43c10.835,0,20.328,5.857,25.479,14.572H240.807   c5.15-8.715,14.644-14.572,25.479-14.572H533.715z M313.706,652.43l9.857-59.145h152.873l9.857,59.145H313.706z M741.573,533.715   c0,16.305-13.267,29.57-29.571,29.57H87.999c-16.306,0-29.572-13.266-29.572-29.57V132.569c0-16.306,13.266-29.571,29.572-29.571   h624.003c16.306,0,29.571,13.266,29.571,29.571V533.715z" fill="#FFFFFF"/><path d="M682.121,126.319H117.878c-19.923,0-36.131,16.209-36.131,36.131v278.01   c0,19.924,16.208,36.131,36.131,36.131h564.243c19.923,0,36.132-16.207,36.132-36.131v-278.01   C718.253,142.528,702.044,126.319,682.121,126.319z M688.253,440.461c0,3.381-2.751,6.131-6.132,6.131H117.878   c-3.38,0-6.131-2.75-6.131-6.131v-278.01c0-3.381,2.75-6.131,6.131-6.131h564.243c3.381,0,6.132,2.75,6.132,6.131V440.461z" fill="#FFFFFF"/></g></svg>
