<?xml version="1.0" encoding="UTF-8" standalone="no"?>
<svg
   xmlns:dc="http://purl.org/dc/elements/1.1/"
   xmlns:cc="http://creativecommons.org/ns#"
   xmlns:rdf="http://www.w3.org/1999/02/22-rdf-syntax-ns#"
   xmlns:svg="http://www.w3.org/2000/svg"
   xmlns="http://www.w3.org/2000/svg"
   xmlns:sodipodi="http://sodipodi.sourceforge.net/DTD/sodipodi-0.dtd"
   xmlns:inkscape="http://www.inkscape.org/namespaces/inkscape"
   enable-background="new -0.2 0 18 30"
   height="30"
   version="1.1"
   viewBox="-0.2 0 30 30"
   width="30"
   xml:space="preserve"
   id="svg6"
   sodipodi:docname="if_Vector-icons_49_1041647.svg"
   inkscape:version="0.92.3 (3ce5693, 2018-03-11)"><metadata
     id="metadata10"><rdf:RDF><cc:Work
         rdf:about=""><dc:format>image/svg+xml</dc:format><dc:type
           rdf:resource="http://purl.org/dc/dcmitype/StillImage" /><dc:title></dc:title></cc:Work></rdf:RDF></metadata><sodipodi:namedview
     pagecolor="#ffffff"
     bordercolor="#666666"
     borderopacity="1"
     objecttolerance="10"
     gridtolerance="10"
     guidetolerance="10"
     inkscape:pageopacity="0"
     inkscape:pageshadow="2"
     inkscape:window-width="1070"
     inkscape:window-height="638"
     id="namedview8"
     showgrid="false"
     inkscape:zoom="7.8666667"
     inkscape:cx="5.2520864"
     inkscape:cy="14.6"
     inkscape:window-x="330"
     inkscape:window-y="226"
     inkscape:window-maximized="0"
     inkscape:current-layer="svg6" /><defs
     id="defs2" /><path
     d="M 14.6,29.8 C 9.8,29.8 6,25.9 6,21.2 6,18.1 7.6,15.4 10,13.9 V 4.5 C 10,2 12.1,0 14.5,0 16.9,0 19,2 19,4.5 v 9.2 c 2.5,1.5 4.2,4.3 4.2,7.4 0.1,4.8 -3.8,8.7 -8.6,8.7 z M 17.3,15.4 17.1,5 C 17.1,3.8 15.7,2.9 14.5,2.9 13.3,2.9 12,3.8 12,5 v 10.5 c -2.1,1 -3.6,3.2 -3.6,5.7 0,3.5 2.8,6.3 6.3,6.3 3.5,0 6.3,-2.8 6.3,-6.3 0,-2.6 -1.5,-4.8 -3.7,-5.8 z m -2.7,10.5 c -2.6,0 -4.7,-2.1 -4.7,-4.7 0,-2 1.3,-3.7 3.1,-4.4 V 8 h 3 v 8.8 c 1.9,0.6 3.3,2.3 3.3,4.4 0,2.6 -2.1,4.7 -4.7,4.7 z"
     id="path4"
     inkscape:connector-curvature="0"
     style="clip-rule:evenodd;fill:#0d0d0d;fill-rule:evenodd" /></svg>