<?xml version="1.0" encoding="UTF-8" standalone="no"?>
<svg height="16px" viewBox="0 0 16 16" width="16px" xmlns="http://www.w3.org/2000/svg" sodipodi:docname="temp-symbolic.svg" inkscape:version="1.2.1 (9c6d41e410, 2022-07-14)" xmlns:inkscape="http://www.inkscape.org/namespaces/inkscape" xmlns:sodipodi="http://sodipodi.sourceforge.net/DTD/sodipodi-0.dtd" xmlns:svg="http://www.w3.org/2000/svg">
    <sodipodi:namedview pagecolor="#ffffff" bordercolor="#000000" borderopacity="0.25" inkscape:showpageshadow="2" inkscape:pageopacity="0.0" inkscape:pagecheckerboard="0" inkscape:deskcolor="#d1d1d1" showgrid="true" inkscape:zoom="9.0807831" inkscape:cx="-7.2680956" inkscape:cy="19.822079" inkscape:window-width="1280" inkscape:window-height="731" inkscape:window-x="0" inkscape:window-y="0" inkscape:window-maximized="1" inkscape:current-layer="svg4">
        <inkscape:grid/>
    </sodipodi:namedview>
    <path d="m 8 0 c -1.6619949 0 -3 1.3380051 -3 3 v 6 c 0 0.1157956 0.006824 0.2295611 0.0195312 0.3417969 a 4 4 0 0 0 -1.0195312 2.6582031 a 4 4 0 0 0 4 4 a 4 4 0 0 0 4 -4 a 4 4 0 0 0 -1.017578 -2.6660156 c 0.012077 -0.1095554 0.017578 -0.2210703 0.017578 -0.3339844 v -6 c 0 -1.6619949 -1.3380051 -3 -3 -3 z m 0 2 c 0.5539982 0 1 0.4460018 1 1 v 1 h -1 v 1 h 1 v 1 h -1 v 1 h 1 v 1 h -1 v 1 h 1 v 1.269531 a 2 2 0 0 1 0.3164062 0.230469 a 2 2 0 0 1 0.0820313 0.082031 a 2 2 0 0 1 0.1816406 0.203125 a 2 2 0 0 1 0.0800781 0.117188 a 2 2 0 0 1 0.125 0.214844 a 2 2 0 0 1 0.0625 0.134765 a 2 2 0 0 1 0.1523438 0.748047 a 2 2 0 0 1 -2 2 a 2 2 0 0 1 -2 -2 a 2 2 0 0 1 0.1503906 -0.732422 a 2 2 0 0 1 0.0703125 -0.154297 a 2 2 0 0 1 0.1191407 -0.205078 a 2 2 0 0 1 0.0820312 -0.119141 a 2 2 0 0 1 0.1972656 -0.21875 a 2 2 0 0 1 0.0605469 -0.060546 a 2 2 0 0 1 0.3203125 -0.232422 v -0.003906 v -7.273438 c 0 -0.5539982 0.4460018 -1 1 -1 z m 0 9 a 1 1 0 0 0 -1 1 a 1 1 0 0 0 1 1 a 1 1 0 0 0 1 -1 a 1 1 0 0 0 -1 -1 z" fill="#2e3434" stroke-width="1.33333" paint-order="stroke fill markers"/>
</svg>
