<?xml version="1.0" ?><!DOCTYPE svg  PUBLIC '-//W3C//DTD SVG 1.1//EN'  'http://www.w3.org/Graphics/SVG/1.1/DTD/svg11.dtd'><svg enable-background="new 0 0 800 800" height="800px" id="GUIDE" version="1.1" viewBox="0 0 800 800" width="800px" xml:space="preserve" xmlns="http://www.w3.org/2000/svg" xmlns:cc="http://creativecommons.org/ns#" xmlns:dc="http://purl.org/dc/elements/1.1/" xmlns:inkscape="http://www.inkscape.org/namespaces/inkscape" xmlns:rdf="http://www.w3.org/1999/02/22-rdf-syntax-ns#" xmlns:sodipodi="http://sodipodi.sourceforge.net/DTD/sodipodi-0.dtd" xmlns:svg="http://www.w3.org/2000/svg" xmlns:xlink="http://www.w3.org/1999/xlink"><path d="M603.457,304.427c-2.194,0-4.402,0.044-6.615,0.131c-17.621-40.951-46.086-76.024-82.839-101.924  c-40.77-28.729-88.769-43.913-138.81-43.913c-61.014,0-119.245,22.829-163.966,64.28c-41.611,38.568-68.076,89.959-75.295,145.751  c-28.262,6.304-53.97,21.442-73.342,43.395c-22.23,25.19-34.474,57.586-34.474,91.215c0,76.049,61.869,137.918,137.916,137.918  h437.424c92.87,0,168.426-75.558,168.426-168.426C771.883,379.983,696.327,304.427,603.457,304.427z M603.457,611.279H166.033  c-59.505,0-107.916-48.412-107.916-107.918c0-53.884,40.209-99.865,93.53-106.96c7-0.933,12.403-6.621,12.973-13.661  c8.789-108.795,101.284-194.019,210.573-194.019c87.489,0,166.975,55.003,197.79,136.868c2.405,6.396,8.833,10.355,15.626,9.631  c4.944-0.524,9.94-0.793,14.849-0.793c76.328,0,138.426,62.099,138.426,138.426C741.883,549.182,679.785,611.279,603.457,611.279z" fill="#FFFFFF"/><path d="M428.291,367.684l-40.108-69.47c-2.679-4.641-7.631-7.5-12.99-7.5c-5.358,0-10.311,2.859-12.99,7.5  l-40.107,69.47c-4.143,7.176-1.685,16.35,5.49,20.49c2.361,1.364,4.94,2.013,7.485,2.013c5.185,0,10.226-2.69,13.005-7.503  l12.117-20.988v166.829c0,8.282,6.717,15,15,15c8.285,0,15-6.718,15-15V361.696l12.118,20.987c4.144,7.176,13.315,9.633,20.49,5.49  C429.976,384.032,432.434,374.859,428.291,367.684z" fill="#FFFFFF"/></svg>
