<?xml version="1.0" encoding="UTF-8" standalone="no"?>
<svg height="16px" viewBox="0 0 16 16" width="16px" xmlns="http://www.w3.org/2000/svg" sodipodi:docname="power-symbolic.svg" inkscape:version="1.2.1 (9c6d41e410, 2022-07-14)" xmlns:inkscape="http://www.inkscape.org/namespaces/inkscape" xmlns:sodipodi="http://sodipodi.sourceforge.net/DTD/sodipodi-0.dtd" xmlns:svg="http://www.w3.org/2000/svg">
    <sodipodi:namedview pagecolor="#ffffff" bordercolor="#000000" borderopacity="0.25" inkscape:showpageshadow="2" inkscape:pageopacity="0.0" inkscape:pagecheckerboard="0" inkscape:deskcolor="#d1d1d1" showgrid="true" inkscape:zoom="17.909323" inkscape:cx="10.106468" inkscape:cy="7.7613208" inkscape:window-width="1280" inkscape:window-height="731" inkscape:window-x="0" inkscape:window-y="0" inkscape:window-maximized="1" inkscape:current-layer="svg8">
        <inkscape:grid/>
    </sodipodi:namedview>
    <path d="m 5 -0.0000003 s -0.707031 -0.015625 -1.449219 0.355469 c -0.738281 0.371093 -1.550781 1.3125 -1.550781 2.644531 v 10.0000003 s -0.015625 0.707031 0.355469 1.449219 c 0.371093 0.738281 1.3125 1.550781 2.644531 1.550781 h 6 s 0.707031 0.01563 1.449219 -0.355469 c 0.738281 -0.371093 1.550781 -1.3125 1.550781 -2.644531 v -10.0000003 c 0 -1.332031 -0.8125 -2.273438 -1.550781 -2.644531 c -0.742188 -0.371094 -1.449219 -0.355469 -1.449219 -0.355469 z m 0 2 h 6 c 0.554688 0 1 0.445312 1 1 v 10.0000003 c 0 0.554688 -0.445312 1 -1 1 h -6 c -0.554688 0 -1 -0.445312 -1 -1 v -10.0000003 c 0 -0.554688 0.445312 -1 1 -1 z m 3.875 2.992188 c -0.042969 0 -0.082031 0.00391 -0.125 0.00781 c -0.179688 0.050781 -0.34375 0.148438 -0.46875 0.28125 l -3.03125 3.0000003 c -0.234375 0.230469 -0.34375 0.582031 -0.28125 0.90625 v 0.8125 h 2.46875 l -1.1875 1.273438 c -0.210938 0.21875 -0.320312 0.539062 -0.28125 0.84375 v 0.09375 v 0.78125 h 1 c 0.265625 0.0039 0.53125 -0.09766 0.71875 -0.28125 l 3 -2.992188 c 0.1875 -0.191406 0.289062 -0.453125 0.28125 -0.71875 c 0.0039 -0.04297 0.0039 -0.08203 0 -0.125 v -0.8749983 h -2.5625 l 1.3125 -1.28125 c 0.214844 -0.21875 0.320312 -0.539062 0.2812497 -0.84375 v -0.09375 v -0.78125 h -0.9374997 h -0.0625 c -0.042969 -0.00391 -0.082031 -0.00781 -0.125 -0.00781 z" fill="#2e3434" sodipodi:nodetypes="ccsccsccsscccssssssssscccccccccccccccccccccccccc"/>
</svg>
