<svg xmlns="http://www.w3.org/2000/svg" width="16" height="16"><g fill="#222"><path d="M8 0c-.234 0-.459.012-.688.031-1.832 1.216-1.77 3.335-.859 5.405A3 3 0 0 1 8 5a3 3 0 0 1 .418.031c.919-2.154 2.91-3.702 3.55-3.968A7.96 7.96 0 0 0 8 0M4 1.094a8 8 0 0 0-3.219 3.5c.12 2.215 1.974 3.23 4.225 3.472L5 8a3 3 0 0 1 .646-1.85C4.248 4.28 3.912 1.787 4 1.094m9.156 1.968c-1.423-.044-2.706.924-3.719 2.305a3 3 0 0 1 1.35 1.528C13.127 6.624 15.48 7.587 16 8a7.96 7.96 0 0 0-1.438-4.563 3.4 3.4 0 0 0-1.406-.374zm-2.158 4.872L11 8a3 3 0 0 1-.646 1.85c1.398 1.87 1.734 4.363 1.646 5.056a8 8 0 0 0 3.219-3.5c-.12-2.214-1.972-3.228-4.221-3.472M0 8c0 1.698.536 3.268 1.438 4.563 1.973.987 3.79-.113 5.128-1.936A3 3 0 0 1 5.22 9.105C2.877 9.38.52 8.413 0 8m9.547 2.564A3 3 0 0 1 8 11a3 3 0 0 1-.418-.031c-.919 2.154-2.91 3.702-3.55 3.969a7.96 7.96 0 0 0 4.655 1.03c1.833-1.215 1.772-3.334.86-5.404"/><circle cx="8" cy="8" r="2"/></g></svg>