<svg xmlns="http://www.w3.org/2000/svg" width="16" height="16"><g fill="#222222"><path d="m1 3.91c0-0.26 0.11-0.51 0.3-0.7l3-2.92c0.39-0.38 1-0.38 1.39 0l3 2.92c0.39 0.38 0.4 1.02 0.02 1.41c-0.39 0.39-1.02 0.4-1.42 0.02l-1.3-1.27v6.55c0 1.33-2 1.33-2 0v-6.55l-1.3 1.27c-0.4 0.38-1.03 0.38-1.41-0.02c-0.2-0.2-0.29-0.46-0.29-0.71z"/><path fill-opacity="0.35" d="m7 11.94c0 0.25 0.11 0.51 0.3 0.7l3 2.92c0.39 0.38 1 0.38 1.39 0l3-2.92c0.39-0.39 0.4-1.02 0.02-1.41c-0.39-0.4-1.02-0.41-1.42-0.02l-1.3 1.27v-6.55c0-1.33-2-1.33-2 0v6.55l-1.3-1.27c-0.4-0.39-1.03-0.38-1.41 0.02c-0.2 0.2-0.29 0.46-0.29 0.71z"/></g></svg>
