<?xml version="1.0" encoding="UTF-8"?>
<svg height="16px" viewBox="0 0 16 16" width="16px" xmlns="http://www.w3.org/2000/svg">
    <g fill="#2e3436">
        <path d="m 4.007812 0 c -2.222656 0 -4.007812 1.785156 -4.007812 4.003906 v 2.976563 c 0 2.21875 1.785156 4.003906 4.007812 4.003906 h 2.980469 v 1.285156 c -0.289062 0.171875 -0.535156 0.414063 -0.707031 0.703125 h -3.285156 c -0.554688 0 -1 0.449219 -1 1 c 0 0.550782 0.445312 1 1 1 h 3.246094 c 0.351562 0.640625 1.023437 1.035156 1.753906 1.039063 c 0.726562 -0.003907 1.398437 -0.398438 1.75 -1.039063 h 3.261718 c 0.550782 0 1 -0.449218 1 -1 c 0 -0.550781 -0.449218 -1 -1 -1 h -3.292968 c -0.175782 -0.289062 -0.421875 -0.53125 -0.714844 -0.703125 v -1.285156 h 2.996094 c 2.21875 0 4.003906 -1.785156 4.003906 -4.003906 v -2.976563 c 0 -2.21875 -1.785156 -4.003906 -4.003906 -4.003906 z m 0 2 h 7.988282 c 1.125 0 2.003906 0.878906 2.003906 2.003906 v 2.976563 c 0 1.125 -0.878906 2.003906 -2.003906 2.003906 h -7.988282 c -1.128906 0 -2.007812 -0.878906 -2.007812 -2.003906 v -2.976563 c 0 -1.125 0.878906 -2.003906 2.007812 -2.003906 z m 3.988282 11 c 0.554687 0 1.003906 0.449219 1.003906 1.003906 c 0 0.558594 -0.449219 1.007813 -1.003906 1.007813 c -0.558594 0 -1.007813 -0.449219 -1.007813 -1.007813 c 0 -0.554687 0.449219 -1.003906 1.007813 -1.003906 z m 0 0"/>
        <path d="m 5 4 c 0.550781 0 1 0.449219 1 1 s -0.449219 1 -1 1 s -1 -0.449219 -1 -1 s 0.449219 -1 1 -1 z m 0 0"/>
        <path d="m 8 4 c 0.550781 0 1 0.449219 1 1 s -0.449219 1 -1 1 s -1 -0.449219 -1 -1 s 0.449219 -1 1 -1 z m 0 0"/>
    </g>
</svg>
