<svg xmlns="http://www.w3.org/2000/svg" width="16" height="16"><path fill="#222" d="M8 0C6.338 0 5 1.338 5 3v6q0 .174.02.342A4 4 0 0 0 4 12a4 4 0 0 0 4 4 4 4 0 0 0 4-4 4 4 0 0 0-1.018-2.666A3 3 0 0 0 11 9V3c0-1.662-1.338-3-3-3m0 2c.554 0 1 .446 1 1v1H8v1h1v1H8v1h1v1H8v1h1v1.27a2 2 0 0 1 .316.23l.082.082a2 2 0 0 1 .182.203 2 2 0 0 1 .08.117 2 2 0 0 1 .125.215 2 2 0 0 1 .063.135A2 2 0 0 1 10 12a2 2 0 0 1-2 2 2 2 0 0 1-2-2 2 2 0 0 1 .15-.732 2 2 0 0 1 .07-.155 2 2 0 0 1 .12-.205 2 2 0 0 1 .082-.119 2 2 0 0 1 .197-.219l.06-.06A2 2 0 0 1 7 10.277V3c0-.554.446-1 1-1m0 9a1 1 0 0 0-1 1 1 1 0 0 0 1 1 1 1 0 0 0 1-1 1 1 0 0 0-1-1"/></svg>