<?xml version="1.0" encoding="UTF-8" standalone="no"?>
<!DOCTYPE svg PUBLIC "-//W3C//DTD SVG 1.1//EN" "http://www.w3.org/Graphics/SVG/1.1/DTD/svg11.dtd">
<svg width="100%" height="100%" viewBox="0 0 512 512" version="1.1" xmlns="http://www.w3.org/2000/svg" xmlns:xlink="http://www.w3.org/1999/xlink" xml:space="preserve" xmlns:serif="http://www.serif.com/" style="fill-rule:evenodd;clip-rule:evenodd;stroke-linejoin:round;stroke-miterlimit:2;">
    <g transform="matrix(3.38015e-16,5.5202,-5.5202,3.38015e-16,526.335,-21.2284)">
        <path d="M18,18L18,8L6,8L6,12L14,12L14,24L6,24L6,41.942L14,41.942L14,50.565L6,50.565L6,68.188L14,68.188L14,84L18,84L18,76L43,76L43,83C43.262,84.981 44.621,85.866 46.73,86L76.27,86C77.384,86 78.257,85.827 78.879,85.369C79.549,84.876 80,84.108 80,83L80,76L84.83,76C88.477,76.314 90.397,75.227 91.886,73.383C93.128,71.845 94.269,69.879 94,66.83L94,18L18,18ZM14,64.188L10,64.188L10,54.565L14,54.565L14,64.188ZM14,37.942L10,37.942L10,28L14,28L14,37.942ZM76,81.05C76,81.783 75.758,82.05 74.84,82.05L48.16,82.05C46.867,82.364 46.769,81.824 47,81.05L47,76L76,76L76,81.05ZM90,65.17C90.472,69.878 88.349,72.291 83.17,72L18,72L18,22L90,22L90,65.17Z" style="fill-rule:nonzero;"/>
    </g>
    <g transform="matrix(2.90206e-16,4.73942,-4.73942,2.90206e-16,491.213,161.673)">
        <path d="M44,66.88C54.906,66.88 63.88,57.906 63.88,47C63.88,36.094 54.906,27.12 44,27.12C33.094,27.12 24.12,36.094 24.12,47C24.131,57.902 33.098,66.869 44,66.88ZM42,62.74C37.914,62.223 34.185,60.135 31.61,56.92L37.67,52.92C38.832,54.175 40.338,55.062 42,55.47L42,62.74ZM46,62.74L46,55.46C47.653,55.082 49.159,54.227 50.33,53L56.39,57C53.801,60.185 50.074,62.244 46,62.74ZM58.06,39.65C60.332,43.951 60.484,49.072 58.47,53.5L52.34,49.5C52.582,48.689 52.707,47.847 52.71,47C52.712,45.831 52.474,44.673 52.01,43.6L58.06,39.65ZM46,31.26C49.762,31.74 53.23,33.554 55.77,36.37L49.63,40.37C48.581,39.483 47.337,38.856 46,38.54L46,31.26ZM48.71,47C48.71,49.584 46.584,51.71 44,51.71C41.416,51.71 39.29,49.584 39.29,47C39.29,44.416 41.416,42.29 44,42.29C46.582,42.295 48.705,44.418 48.71,47ZM42,31.26L42,38.53C40.664,38.854 39.421,39.484 38.37,40.37L32.23,36.37C34.77,33.554 38.238,31.74 42,31.26ZM36,43.6C35.536,44.673 35.298,45.831 35.3,47C35.304,47.843 35.429,48.682 35.67,49.49L29.53,53.49C27.53,49.059 27.681,43.945 29.94,39.64L36,43.6Z" style="fill-rule:nonzero;"/>
    </g>
    <g transform="matrix(2.65262e-16,4.33206,-4.33206,2.65262e-16,472.204,-12.7952)">
        <g>
            <path d="M44,66.88C54.906,66.88 63.88,57.906 63.88,47C63.88,36.094 54.906,27.12 44,27.12C33.094,27.12 24.12,36.094 24.12,47C24.131,57.902 33.098,66.869 44,66.88ZM42,62.74C37.914,62.223 34.185,60.135 31.61,56.92L37.67,52.92C38.832,54.175 40.338,55.062 42,55.47L42,62.74ZM46,62.74L46,55.46C47.653,55.082 49.159,54.227 50.33,53L56.39,57C53.801,60.185 50.074,62.244 46,62.74ZM58.06,39.65C60.332,43.951 60.484,49.072 58.47,53.5L52.34,49.5C52.582,48.689 52.707,47.847 52.71,47C52.712,45.831 52.474,44.673 52.01,43.6L58.06,39.65ZM46,31.26C49.762,31.74 53.23,33.554 55.77,36.37L49.63,40.37C48.581,39.483 47.337,38.856 46,38.54L46,31.26ZM48.71,47C48.71,49.584 46.584,51.71 44,51.71C41.416,51.71 39.29,49.584 39.29,47C39.29,44.416 41.416,42.29 44,42.29C46.582,42.295 48.705,44.418 48.71,47ZM42,31.26L42,38.53C40.664,38.854 39.421,39.484 38.37,40.37L32.23,36.37C34.77,33.554 38.238,31.74 42,31.26ZM36,43.6C35.536,44.673 35.298,45.831 35.3,47C35.304,47.843 35.429,48.682 35.67,49.49L29.53,53.49C27.53,49.059 27.681,43.945 29.94,39.64L36,43.6Z" style="fill-rule:nonzero;"/>
        </g>
    </g>
</svg>
