<?xml version="1.0" ?><svg enable-background="new 0 0 52 52" id="Layer_1" version="1.1" viewBox="0 0 52 52" xml:space="preserve" xmlns="http://www.w3.org/2000/svg" xmlns:xlink="http://www.w3.org/1999/xlink"><path d="M50,41.0999756V11.4000244h-6.9978638V7.7766113C44.164978,7.364502,45,6.2706909,45,4.9799805  C45,3.3400269,43.6600342,2,42,2c-1.6499634,0-3,1.3400269-3,2.9799805c0,1.2908936,0.8413696,2.3848267,2.0021362,2.796814v3.62323  h-8V7.7766113C34.164978,7.364502,35,6.2706909,35,4.9799805C35,3.3400269,33.6600342,2,32,2c-1.6499634,0-3,1.3400269-3,2.9799805  c0,1.2908936,0.8413696,2.3848267,2.0021362,2.796814v3.62323h-8V7.7766113C24.164978,7.364502,25,6.2706909,25,4.9799805  C25,3.3400269,23.6600342,2,22,2c-1.6499634,0-3,1.3400269-3,2.9799805c0,1.2908936,0.8413696,2.3848267,2.0021362,2.796814v3.62323  h-8V7.7766113C14.164978,7.364502,15,6.2706909,15,4.9799805C15,3.3400269,13.6600342,2,12,2c-1.6499634,0-3,1.3400269-3,2.9799805  c0,1.2908936,0.8413696,2.3848267,2.0021362,2.796814v3.62323H2v29.6999512h9.0021362v3.1321411  C9.8413696,44.6417847,9,45.7312622,9,47.0299683C9,48.6699829,10.3500366,50,12,50c1.6600342,0,3-1.3300171,3-2.9700317  c0-1.298584-0.835022-2.3878784-1.9978638-2.7977295v-3.1322632h8v3.1321411C19.8413696,44.6417847,19,45.7312622,19,47.0299683  C19,48.6699829,20.3500366,50,22,50c1.6600342,0,3-1.3300171,3-2.9700317c0-1.298584-0.835022-2.3878784-1.9978638-2.7977295  v-3.1322632h8v3.1321411C29.8413696,44.6417847,29,45.7312622,29,47.0299683C29,48.6699829,30.3500366,50,32,50  c1.6600342,0,3-1.3300171,3-2.9700317c0-1.298584-0.835022-2.3878784-1.9978638-2.7977295v-3.1322632h8v3.1321411  C39.8413696,44.6417847,39,45.7312622,39,47.0299683C39,48.6699829,40.3500366,50,42,50c1.6600342,0,3-1.3300171,3-2.9700317  c0-1.298584-0.835022-2.3878784-1.9978638-2.7977295v-3.1322632H50z M7,16.3500366h38v19.7999878H7V16.3500366z"/></svg>