<svg xmlns="http://www.w3.org/2000/svg" width="24" height="24" viewBox="0 0 24 24"><path fill="currentColor" d="M3 17h4.1q-.425-.425-.787-.925T5.675 15H3zm9 0q2.075 0 3.538-1.463T17 12t-1.463-3.537T12 7T8.463 8.463T7 12t1.463 3.538T12 17m6.325-8H21V7h-4.1q.425.425.788.925T18.325 9M1 20v-8h2v1h2.075q-.05-.25-.062-.488T5 12q0-2.925 2.038-4.962T12 5h9V4h2v8h-2v-1h-2.075q.05.25.063.488T19 12q0 2.925-2.037 4.963T12 19H3v1zm2-3v-2zm18-8V7zm-9 6q-.825 0-1.412-.587T10 13q0-.575.238-1.137t.912-1.613L12 9l.85 1.25q.675 1.05.913 1.613T14 13q0 .825-.587 1.413T12 15"/></svg>